<?xml version="1.0" encoding="UTF-8"?><svg version="1.1" width="582px" height="531px" viewBox="0 0 582.0 531.0" xmlns="http://www.w3.org/2000/svg" xmlns:xlink="http://www.w3.org/1999/xlink"><defs><filter id="i0" x="-2.45231149%" y="-2.30929194%" filterUnits="userSpaceOnUse" width="103.503302%" height="103.84882%"><feDropShadow stdDeviation="2" dx="0" dy="2" flood-color="rgba(0, 0, 0, 0.5)"></feDropShadow></filter><clipPath id="i1"><path d="M126.733793,69.266655 C149.470793,119.706655 142.525793,172.016655 111.223793,186.136655 C79.9207927,200.256655 36.1137927,170.826655 13.3787927,120.396655 C-9.35820729,69.966655 -2.41420729,17.651655 28.8887927,3.53365497 C60.1917927,-10.580345 103.996793,18.850655 126.733793,69.266655 Z"></path></clipPath><clipPath id="i2"><path d="M13.3791004,69.266655 C36.1161004,18.850655 79.9231004,-10.580345 111.2241,3.53365497 C142.5261,17.651655 149.4711,69.966655 126.7371,120.396655 C103.9971,170.826655 60.1941004,200.256655 28.8911004,186.136655 C-2.41389958,172.016655 -9.35889958,119.706655 13.3791004,69.266655 Z"></path></clipPath><clipPath id="i3"><path d="M125.132379,85.6823107 C136.787179,139.751311 119.021579,189.445311 85.4536788,196.685311 C51.8882788,203.915311 15.2287788,165.945311 3.57577882,111.881311 C-8.07722118,57.8133107 9.68777882,8.1173107 43.2549788,0.884310698 C76.8218788,-6.3516893 113.479579,31.6133107 125.132379,85.6823107 Z"></path></clipPath><clipPath id="i4"><path d="M3.57290937,85.6818952 C15.2213094,31.6128952 51.8785094,-6.35010479 85.4463094,0.883895206 C119.015309,8.11689521 136.778309,57.8128952 125.124309,111.881895 C113.472309,165.948895 76.8143094,203.918895 43.2467094,196.678895 C9.68130937,189.448895 -8.07169063,139.749895 3.57290937,85.6818952 Z"></path></clipPath><clipPath id="i5"><path d="M126.352498,46.132665 C173.733298,-35.657335 239.700098,11.082665 252.660098,36.602665 C265.621998,62.132665 307.693998,117.742665 332.886998,136.332665 C358.080998,154.932665 390.366998,187.712665 375.930998,239.162665 C361.494998,290.612665 299.849998,295.742665 251.008698,288.972665 C202.164998,282.202665 133.752398,288.882665 97.4656985,290.912665 C61.1809985,292.952665 6.06299845,269.952665 0.605998453,216.212665 C-4.85400155,162.482665 27.6819985,139.082665 53.9379985,123.102665 C80.1961985,107.122665 118.160098,60.282665 126.352498,46.132665 Z"></path></clipPath></defs><g transform="translate(9.813877289549339 9.4456493017384)"><g filter="url(#i0)"><g transform="translate(0.0 117.50865572641862)"><g clip-path="url(#i1)"><polygon points="8.8817842e-15,5.2846616e-14 140.1123,5.2846616e-14 140.1123,189.672882 8.8817842e-15,189.672882 8.8817842e-15,5.2846616e-14" stroke="none" fill="#6DA34D"></polygon></g></g><g transform="translate(422.7766922909688 117.50865572641862)"><g clip-path="url(#i2)"><polygon points="-5.32907052e-15,5.2846616e-14 140.113265,5.2846616e-14 140.113265,189.672882 -5.32907052e-15,189.672882 -5.32907052e-15,5.2846616e-14" stroke="none" fill="#6DA34D"></polygon></g></g><g transform="translate(134.65401388612128 0.0)"><g clip-path="url(#i3)"><polygon points="-4.4408921e-16,-2.87547763e-14 128.70899,-2.87547763e-14 128.70899,197.568167 -4.4408921e-16,197.568167 -4.4408921e-16,-2.87547763e-14" stroke="none" fill="#6DA34D"></polygon></g></g><g transform="translate(298.6954833449659 0.04641549244945509)"><g clip-path="url(#i4)"><polygon points="0,1.89848137e-14 128.700799,1.89848137e-14 128.700799,197.564019 0,197.564019 0,1.89848137e-14" stroke="none" fill="#6DA34D"></polygon></g></g><g transform="translate(91.42079425761963 220.29264574171327)"><g clip-path="url(#i5)"><polygon points="0,-4.97379915e-14 379.507173,-4.97379915e-14 379.507173,291.347153 0,291.347153 0,-4.97379915e-14" stroke="none" fill="#6DA34D"></polygon></g></g></g></g></svg>