<svg xmlns="http://www.w3.org/2000/svg" version="1.1" xmlnsXlink="http://www.w3.org/1999/xlink" xmlnsSvgjs="http://svgjs.dev/svgjs" width="2000" height="590" viewBox="0 0 2000 590"><g transform="matrix(1,0,0,1,-1.2121185541634532,-1.2476483710660204)"><svg viewBox="0 0 396 117" data-background-color="#ffffff" preserveAspectRatio="xMidYMid meet" height="590" width="2000" xmlns="http://www.w3.org/2000/svg" xmlnsXlink="http://www.w3.org/1999/xlink"><g id="tight-bounds" transform="matrix(1,0,0,1,0.23999947372436736,0.24741685748142572)"><svg viewBox="0 0 395.52 116.50516204199302" height="116.50516204199302" width="395.52"><g><svg viewBox="0 0 639.0834136285425 188.24968816530998" height="116.50516204199302" width="395.52"><g><rect width="6.142022848200377" height="81.72924232936758" x="221.3427969368857" y="53.2602229179712" fill="#00a7e1" opacity="1" stroke-width="0" stroke="transparent" fill-opacity="1" class="rect-o-0" data-fill-palette-color="primary" rx="1%" id="o-0" data-palette-color="#00a7e1"></rect></g><g transform="matrix(1,0,0,1,243.56341362854255,60.07099311208516)"><svg viewBox="0 0 395.52 68.10770194113965" height="68.10770194113965" width="395.52"><g><svg viewBox="0 0 395.52 68.10770194113965" height="68.10770194113965" width="395.52"><g><svg viewBox="0 0 395.52 68.10770194113965" height="68.10770194113965" width="395.52"><g transform="matrix(1,0,0,1,0,0)"><svg width="395.52" viewBox="4.550000190734863 -40.54999923706055 239.52999877929688 41.25" height="68.10770194113965" data-palette-color="#00a7e1"><path d="M4.55 0L11.95 0 11.95-15 25.1-15 25.1-21.2 11.95-21.2 11.95-30.85 27.35-30.85 27.35-37.05 4.55-37.05ZM33.2 0L40.55 0 40.55-28 33.2-28ZM36.9-32.5C39.4-32.5 41.15-34.1 41.15-36.55 41.15-38.95 39.4-40.55 36.9-40.55 34.35-40.55 32.6-38.95 32.6-36.55 32.6-34.1 34.35-32.5 36.9-32.5ZM48.4 0L55.75 0 55.75-19.25C57.8-21.3 59.25-22.4 61.55-22.4 64.3-22.4 65.5-20.9 65.5-16.55L65.5 0 72.84 0 72.84-17.45C72.84-24.5 70.25-28.7 64.19-28.7 60.4-28.7 57.55-26.7 55.09-24.3L54.95-24.3 54.4-28 48.4-28ZM90.29 0.7C93.19 0.7 95.99-0.9 98.04-2.9L98.24-2.9 98.79 0 104.74 0 104.74-39.9 97.44-39.9 97.44-30.05 97.69-25.65C95.69-27.5 93.74-28.7 90.59-28.7 84.54-28.7 78.84-23.1 78.84-14 78.84-4.8 83.34 0.7 90.29 0.7ZM92.19-5.35C88.49-5.35 86.39-8.25 86.39-14.05 86.39-19.65 89.04-22.65 92.19-22.65 93.94-22.65 95.74-22.1 97.44-20.55L97.44-8.25C95.79-6.15 94.14-5.35 92.19-5.35ZM132.64-19.3C133.74-23.15 134.84-27.35 135.79-31.4L136.04-31.4C137.09-27.4 138.09-23.15 139.24-19.3L140.34-15.25 131.54-15.25ZM119.84 0L127.34 0 129.94-9.5 141.94-9.5 144.54 0 152.29 0 140.39-37.05 131.69-37.05ZM167.98 0L175.38 0 175.38-13.15 180.33-13.15C188.28-13.15 194.63-16.95 194.63-25.4 194.63-34.15 188.33-37.05 180.13-37.05L167.98-37.05ZM175.38-19L175.38-31.15 179.58-31.15C184.68-31.15 187.38-29.7 187.38-25.4 187.38-21.15 184.93-19 179.83-19ZM211.68 0.7C215.13 0.7 218.68-0.5 221.43-2.4L218.93-6.9C216.93-5.65 214.93-4.95 212.63-4.95 208.48-4.95 205.48-7.35 204.88-11.95L222.13-11.95C222.33-12.6 222.48-13.95 222.48-15.35 222.48-23.05 218.48-28.7 210.78-28.7 204.13-28.7 197.73-23.05 197.73-14 197.73-4.75 203.83 0.7 211.68 0.7ZM204.78-16.85C205.33-20.9 207.93-23 210.88-23 214.48-23 216.18-20.6 216.18-16.85ZM238.18 0.7C240.63 0.7 242.58 0.15 244.08-0.35L242.88-5.7C242.13-5.4 241.03-5.1 240.13-5.1 237.63-5.1 236.33-6.6 236.33-9.8L236.33-22.2 243.23-22.2 243.23-28 236.33-28 236.33-35.55 230.23-35.55 229.38-28 225.03-27.65 225.03-22.2 228.98-22.2 228.98-9.8C228.98-3.55 231.53 0.7 238.18 0.7Z" opacity="1" transform="matrix(1,0,0,1,0,0)" fill="#00a7e1" class="undefined-text-0" data-fill-palette-color="primary" id="text-0"></path></svg></g></svg></g></svg></g></svg></g><g><svg viewBox="0 0 205.26420309342922 188.24968816530998" height="188.24968816530998" width="205.26420309342922"><g><svg xmlns="http://www.w3.org/2000/svg" xmlnsXlink="http://www.w3.org/1999/xlink" version="1.1" x="0" y="0" viewBox="5 8.732001304626465 89.99800109863281 82.53799438476562" enable-background="new 0 0 100 100" xmlSpace="preserve" height="188.24968816530998" width="205.26420309342922" class="icon-icon-0" data-fill-palette-color="accent" id="icon-0"><path fill-rule="evenodd" clip-rule="evenodd" d="M29.986 91.226c-0.363-0.025-0.727-0.045-1.09-0.078-2.034-0.191-3.899-0.854-5.555-2.053-2.857-2.069-4.684-4.82-5.412-8.282-0.272-1.301-0.348-2.614-0.265-3.939 0.094-1.555 0.404-3.063 0.898-4.538 0.789-2.354 1.979-4.49 3.485-6.459 1.135-1.484 2.42-2.828 3.836-4.047 1.325-1.142 2.528-2.403 3.655-3.738 1.418-1.683 2.701-3.467 3.968-5.263 1.12-1.588 2.221-3.186 3.41-4.721 0.894-1.158 1.837-2.273 2.888-3.292 1.315-1.273 2.766-2.351 4.476-3.05 1.283-0.525 2.616-0.803 4.003-0.832 1.568-0.036 3.117 0.119 4.642 0.492 2.334 0.573 4.356 1.708 6.097 3.36 1.191 1.135 2.199 2.419 3.136 3.763 0.994 1.425 1.907 2.902 2.849 4.362 1.062 1.644 2.158 3.262 3.383 4.792 1.22 1.525 2.566 2.932 4.036 4.219 1.778 1.557 3.356 3.29 4.7 5.236 1.146 1.669 2.08 3.444 2.732 5.362 0.508 1.494 0.827 3.022 0.908 4.601 0.125 2.398-0.289 4.691-1.377 6.848-1.007 1.999-2.465 3.604-4.296 4.879-1.346 0.937-2.798 1.649-4.397 2.045-0.566 0.142-1.141 0.244-1.722 0.3-0.081 0.008-0.159 0.023-0.237 0.035-0.076 0.043-0.16 0.011-0.24 0.021-0.066 0.009-0.136-0.021-0.199 0.021-0.496 0-0.994 0-1.49 0-0.059-0.043-0.126-0.013-0.189-0.021-0.058 0-0.113 0-0.17 0-0.047 0-0.098 0-0.144 0-1.271-0.041-2.505-0.306-3.735-0.591-2.084-0.486-4.127-1.125-6.2-1.653-1.679-0.426-3.372-0.772-5.095-0.969-1.194-0.137-2.391-0.152-3.585-0.111-0.955 0.032-1.903 0.179-2.842 0.354-1.854 0.349-3.671 0.848-5.489 1.344-1.923 0.528-3.846 1.053-5.815 1.375-0.801 0.129-1.603 0.24-2.417 0.232-0.167-0.002-0.333 0.023-0.502 0.019C30.41 91.237 30.198 91.275 29.986 91.226z" fill="#00a7e1" data-fill-palette-color="accent"></path><path fill-rule="evenodd" clip-rule="evenodd" d="M66.723 8.768c2.68 0.322 4.727 1.684 6.291 3.832 1.072 1.473 1.746 3.125 2.164 4.891 0.357 1.521 0.492 3.065 0.441 4.627-0.094 2.87-0.768 5.596-2.014 8.182-0.863 1.792-1.977 3.408-3.397 4.802-1.265 1.239-2.696 2.229-4.366 2.846-1.173 0.433-2.379 0.647-3.629 0.573-2.164-0.125-4.001-0.985-5.545-2.487-1.316-1.282-2.213-2.832-2.834-4.548-0.434-1.2-0.705-2.437-0.846-3.702-0.098-0.867-0.137-1.735-0.109-2.603 0.064-2.049 0.432-4.044 1.098-5.981 0.707-2.062 1.709-3.963 3.077-5.663 1.151-1.43 2.496-2.639 4.11-3.532 1.186-0.657 2.449-1.082 3.801-1.235 0.041-0.023 0.086-0.013 0.128-0.016 0.043 0 0.086 0 0.128 0 0.062-0.008 0.128 0.022 0.183-0.022 0.295 0 0.585 0 0.878 0 0.057 0.045 0.121 0.015 0.183 0.022 0.044 0 0.085 0 0.129 0C66.635 8.755 66.681 8.744 66.723 8.768z" fill="#00a7e1" data-fill-palette-color="accent"></path><path fill-rule="evenodd" clip-rule="evenodd" d="M5.081 40.413c0.042-0.818 0.189-1.621 0.404-2.411 0.416-1.535 1.097-2.934 2.158-4.132 1.186-1.337 2.652-2.202 4.408-2.551 1.426-0.282 2.833-0.161 4.216 0.265 1.59 0.491 2.996 1.326 4.246 2.413 1.942 1.683 3.334 3.754 4.298 6.124 0.504 1.241 0.853 2.526 1.046 3.851 0.094 0.643 0.139 1.29 0.152 1.94 0.023 1.234-0.101 2.448-0.407 3.642-0.408 1.593-1.095 3.043-2.19 4.284-1.257 1.424-2.824 2.31-4.702 2.615-1.378 0.224-2.733 0.073-4.059-0.355-1.783-0.579-3.311-1.573-4.657-2.86-1.313-1.252-2.356-2.706-3.169-4.323-0.797-1.586-1.347-3.258-1.612-5.017-0.046-0.311-0.084-0.622-0.126-0.932-0.033-0.142-0.02-0.287-0.054-0.428-0.016-0.059-0.007-0.115-0.01-0.176C5.012 42.287 5.046 42.207 5 42.132c0-0.38 0-0.759 0-1.14 0.071-0.104 0.036-0.22 0.044-0.331C5.05 40.578 5.029 40.49 5.081 40.413z" fill="#00a7e1" data-fill-palette-color="accent"></path><path fill-rule="evenodd" clip-rule="evenodd" d="M23.897 22.127c0.009-2.263 0.331-4.304 1.088-6.268 0.571-1.485 1.355-2.843 2.447-4.012 1.176-1.262 2.573-2.167 4.258-2.593 1.685-0.428 3.341-0.306 4.969 0.283 1.434 0.52 2.685 1.34 3.796 2.375 1.774 1.65 3.044 3.642 3.949 5.875 0.575 1.42 0.971 2.888 1.197 4.401 0.128 0.858 0.202 1.723 0.22 2.594 0.019 1.096-0.05 2.188-0.231 3.27-0.376 2.261-1.143 4.367-2.511 6.229-0.851 1.155-1.884 2.11-3.152 2.798-1.417 0.768-2.934 1.089-4.539 0.965-1.451-0.111-2.789-0.585-4.037-1.325-1.628-0.964-2.946-2.264-4.043-3.794-1.301-1.817-2.195-3.826-2.761-5.985-0.31-1.181-0.508-2.382-0.598-3.6C23.913 22.883 23.882 22.423 23.897 22.127z" fill="#00a7e1" data-fill-palette-color="accent"></path><path fill-rule="evenodd" clip-rule="evenodd" d="M94.998 41.739c0 0.087 0 0.175 0 0.263-0.1 2.182-0.684 4.236-1.627 6.195-0.742 1.535-1.689 2.934-2.861 4.174-1.504 1.594-3.249 2.837-5.324 3.583-1.243 0.447-2.523 0.667-3.846 0.594-1.953-0.11-3.658-0.818-5.092-2.15-1.184-1.101-1.965-2.455-2.457-3.979-0.443-1.366-0.622-2.774-0.577-4.208 0.097-3.153 1.094-6.019 2.821-8.642 0.583-0.888 1.252-1.708 2.002-2.458 1.543-1.537 3.307-2.719 5.396-3.389 1.188-0.378 2.402-0.551 3.646-0.454 1.9 0.147 3.557 0.866 4.947 2.177 1.254 1.183 2.045 2.644 2.523 4.284 0.264 0.906 0.418 1.833 0.449 2.778 0 0.088 0 0.177 0 0.265C94.988 41.094 94.989 41.416 94.998 41.739z" fill="#00a7e1" data-fill-palette-color="accent"></path></svg></g></svg></g></svg></g><defs></defs></svg><rect width="395.52" height="116.50516204199302" fill="none" stroke="none" visibility="hidden"></rect></g></svg></g></svg>